<svg width="512" height="512" viewBox="0 0 512 512" fill="none" xmlns="http://www.w3.org/2000/svg">
<path d="M462 0H50C22.3858 0 0 22.3858 0 50V462C0 489.614 22.3858 512 50 512H462C489.614 512 512 489.614 512 462V50C512 22.3858 489.614 0 462 0Z" fill="#2563EB"/>
<path d="M440.613 67.3598C428.336 55.0829 411.809 48 393.394 48H329.648V73.4983H392.922C404.254 73.4983 414.642 78.2202 422.198 85.7753C429.753 93.3303 434.474 103.719 434.474 115.051V182.574H459.973V114.579C459.973 96.1635 452.418 79.6368 440.613 67.3598ZM89.7753 425.753C82.2202 418.198 77.4983 407.809 77.4983 396.477V329.426H52V396.949C52 415.364 59.5551 431.891 71.3598 444.168C84.109 455.973 100.636 463.528 119.051 463.528H182.325V438.03H119.051C107.719 438.03 97.3303 433.308 89.7753 425.753ZM434.002 396.949C434.002 408.282 429.28 418.67 421.725 426.225C414.17 433.78 403.782 438.502 392.449 438.502H329.648V464H392.922C411.337 464 427.864 456.445 440.141 444.64C452.418 432.363 459.501 415.837 459.501 397.421V329.426H434.002V396.949ZM71.832 67.3598C59.5551 79.6368 52.4722 96.1635 52.4722 114.579V182.102H77.9705V114.579C77.9705 103.246 82.6924 92.8581 90.2474 85.3031C97.8025 77.748 108.191 73.0261 119.523 73.0261H182.797V48H119.051C100.636 48 84.109 55.5551 71.832 67.3598Z" fill="white"/>
<path d="M149.991 203.823C140.071 203.823 132.551 200.431 127.431 193.647C122.311 186.863 119.751 176.847 119.751 163.599C119.751 150.351 122.311 140.335 127.431 133.551C132.551 126.767 140.071 123.375 149.991 123.375C159.911 123.375 167.431 126.767 172.551 133.551C177.671 140.335 180.231 150.351 180.231 163.599C180.231 176.847 177.671 186.863 172.551 193.647C167.431 200.431 159.911 203.823 149.991 203.823ZM149.991 189.039C154.727 189.039 158.247 186.959 160.551 182.799C162.855 178.575 164.007 172.175 164.007 163.599C164.007 155.023 162.855 148.655 160.551 144.495C158.247 140.271 154.727 138.159 149.991 138.159C145.255 138.159 141.735 140.271 139.431 144.495C137.127 148.655 135.975 155.023 135.975 163.599C135.975 172.175 137.127 178.575 139.431 182.799C141.735 186.959 145.255 189.039 149.991 189.039ZM131.079 170.415L171.303 139.983V156.783L131.079 187.215V170.415Z" fill="white"/>
<path d="M161.128 218.2V279.64H178.888V295H124.936V279.64H144.904V228.088L147.976 229.528L124.936 244.696V227.416L139.624 218.2H161.128Z" fill="white"/>
<path d="M161.128 311.2V372.64H178.888V388H124.936V372.64H144.904V321.088L147.976 322.528L124.936 337.696V320.416L139.624 311.2H161.128Z" fill="#DCDCDC"/>
<path d="M289.991 203.823C280.071 203.823 272.551 200.431 267.431 193.647C262.311 186.863 259.751 176.847 259.751 163.599C259.751 150.351 262.311 140.335 267.431 133.551C272.551 126.767 280.071 123.375 289.991 123.375C299.911 123.375 307.431 126.767 312.551 133.551C317.671 140.335 320.231 150.351 320.231 163.599C320.231 176.847 317.671 186.863 312.551 193.647C307.431 200.431 299.911 203.823 289.991 203.823ZM289.991 189.039C294.727 189.039 298.247 186.959 300.551 182.799C302.855 178.575 304.007 172.175 304.007 163.599C304.007 155.023 302.855 148.655 300.551 144.495C298.247 140.271 294.727 138.159 289.991 138.159C285.255 138.159 281.735 140.271 279.431 144.495C277.127 148.655 275.975 155.023 275.975 163.599C275.975 172.175 277.127 178.575 279.431 182.799C281.735 186.959 285.255 189.039 289.991 189.039ZM271.079 170.415L311.303 139.983V156.783L271.079 187.215V170.415Z" fill="white"/>
<path d="M289.991 296.823C280.071 296.823 272.551 293.431 267.431 286.647C262.311 279.863 259.751 269.847 259.751 256.599C259.751 243.351 262.311 233.335 267.431 226.551C272.551 219.767 280.071 216.375 289.991 216.375C299.911 216.375 307.431 219.767 312.551 226.551C317.671 233.335 320.231 243.351 320.231 256.599C320.231 269.847 317.671 279.863 312.551 286.647C307.431 293.431 299.911 296.823 289.991 296.823ZM289.991 282.039C294.727 282.039 298.247 279.959 300.551 275.799C302.855 271.575 304.007 265.175 304.007 256.599C304.007 248.023 302.855 241.655 300.551 237.495C298.247 233.271 294.727 231.159 289.991 231.159C285.255 231.159 281.735 233.271 279.431 237.495C277.127 241.655 275.975 248.023 275.975 256.599C275.975 265.175 277.127 271.575 279.431 275.799C281.735 279.959 285.255 282.039 289.991 282.039ZM271.079 263.415L311.303 232.983V249.783L271.079 280.215V263.415Z" fill="#DCDCDC"/>
<path d="M289.991 389.823C280.071 389.823 272.551 386.431 267.431 379.647C262.311 372.863 259.751 362.847 259.751 349.599C259.751 336.351 262.311 326.335 267.431 319.551C272.551 312.767 280.071 309.375 289.991 309.375C299.911 309.375 307.431 312.767 312.551 319.551C317.671 326.335 320.231 336.351 320.231 349.599C320.231 362.847 317.671 372.863 312.551 379.647C307.431 386.431 299.911 389.823 289.991 389.823ZM289.991 375.039C294.727 375.039 298.247 372.959 300.551 368.799C302.855 364.575 304.007 358.175 304.007 349.599C304.007 341.023 302.855 334.655 300.551 330.495C298.247 326.271 294.727 324.159 289.991 324.159C285.255 324.159 281.735 326.271 279.431 330.495C277.127 334.655 275.975 341.023 275.975 349.599C275.975 358.175 277.127 364.575 279.431 368.799C281.735 372.959 285.255 375.039 289.991 375.039ZM271.079 356.415L311.303 325.983V342.783L271.079 373.215V356.415Z" fill="#DCDCDC"/>
<path d="M359.991 203.823C350.071 203.823 342.551 200.431 337.431 193.647C332.311 186.863 329.751 176.847 329.751 163.599C329.751 150.351 332.311 140.335 337.431 133.551C342.551 126.767 350.071 123.375 359.991 123.375C369.911 123.375 377.431 126.767 382.551 133.551C387.671 140.335 390.231 150.351 390.231 163.599C390.231 176.847 387.671 186.863 382.551 193.647C377.431 200.431 369.911 203.823 359.991 203.823ZM359.991 189.039C364.727 189.039 368.247 186.959 370.551 182.799C372.855 178.575 374.007 172.175 374.007 163.599C374.007 155.023 372.855 148.655 370.551 144.495C368.247 140.271 364.727 138.159 359.991 138.159C355.255 138.159 351.735 140.271 349.431 144.495C347.127 148.655 345.975 155.023 345.975 163.599C345.975 172.175 347.127 178.575 349.431 182.799C351.735 186.959 355.255 189.039 359.991 189.039ZM341.079 170.415L381.303 139.983V156.783L341.079 187.215V170.415Z" fill="white"/>
<path d="M359.991 296.823C350.071 296.823 342.551 293.431 337.431 286.647C332.311 279.863 329.751 269.847 329.751 256.599C329.751 243.351 332.311 233.335 337.431 226.551C342.551 219.767 350.071 216.375 359.991 216.375C369.911 216.375 377.431 219.767 382.551 226.551C387.671 233.335 390.231 243.351 390.231 256.599C390.231 269.847 387.671 279.863 382.551 286.647C377.431 293.431 369.911 296.823 359.991 296.823ZM359.991 282.039C364.727 282.039 368.247 279.959 370.551 275.799C372.855 271.575 374.007 265.175 374.007 256.599C374.007 248.023 372.855 241.655 370.551 237.495C368.247 233.271 364.727 231.159 359.991 231.159C355.255 231.159 351.735 233.271 349.431 237.495C347.127 241.655 345.975 248.023 345.975 256.599C345.975 265.175 347.127 271.575 349.431 275.799C351.735 279.959 355.255 282.039 359.991 282.039ZM341.079 263.415L381.303 232.983V249.783L341.079 280.215V263.415Z" fill="#DCDCDC"/>
<path d="M371.128 311.2V372.64H388.888V388H334.936V372.64H354.904V321.088L357.976 322.528L334.936 337.696V320.416L349.624 311.2H371.128Z" fill="#DCDCDC"/>
<path d="M231.128 125.2V186.64H248.888V202H194.936V186.64H214.904V135.088L217.976 136.528L194.936 151.696V134.416L209.624 125.2H231.128Z" fill="white"/>
<path d="M219.991 296.823C210.071 296.823 202.551 293.431 197.431 286.647C192.311 279.863 189.751 269.847 189.751 256.599C189.751 243.351 192.311 233.335 197.431 226.551C202.551 219.767 210.071 216.375 219.991 216.375C229.911 216.375 237.431 219.767 242.551 226.551C247.671 233.335 250.231 243.351 250.231 256.599C250.231 269.847 247.671 279.863 242.551 286.647C237.431 293.431 229.911 296.823 219.991 296.823ZM219.991 282.039C224.727 282.039 228.247 279.959 230.551 275.799C232.855 271.575 234.007 265.175 234.007 256.599C234.007 248.023 232.855 241.655 230.551 237.495C228.247 233.271 224.727 231.159 219.991 231.159C215.255 231.159 211.735 233.271 209.431 237.495C207.127 241.655 205.975 248.023 205.975 256.599C205.975 265.175 207.127 271.575 209.431 275.799C211.735 279.959 215.255 282.039 219.991 282.039ZM201.079 263.415L241.303 232.983V249.783L201.079 280.215V263.415Z" fill="white"/>
<path d="M231.128 311.2V372.64H248.888V388H194.936V372.64H214.904V321.088L217.976 322.528L194.936 337.696V320.416L209.624 311.2H231.128Z" fill="#DCDCDC"/>
</svg>
